<?xml version="1.0" encoding="UTF-8" standalone="no"?>
<!DOCTYPE svg PUBLIC "-//W3C//DTD SVG 1.1//EN"
 "http://www.w3.org/Graphics/SVG/1.1/DTD/svg11.dtd">
<!-- Generated by graphviz version 12.1.2 (0)
 -->
<!-- Pages: 1 -->
<svg width="902pt" height="2564pt"
 viewBox="0.00 0.00 901.54 2564.00" xmlns="http://www.w3.org/2000/svg" xmlns:xlink="http://www.w3.org/1999/xlink">
<g id="graph0" class="graph" transform="scale(1 1) rotate(0) translate(4 2560)">
<polygon fill="white" stroke="none" points="-4,4 -4,-2560 897.54,-2560 897.54,4 -4,4"/>
<!-- x001y000 -->
<g id="node1" class="node">
<title>x001y000</title>
<ellipse fill="none" stroke="black" cx="275.77" cy="-2538" rx="47.77" ry="18"/>
<text text-anchor="middle" x="275.77" y="-2532.95" font-family="Times,serif" font-size="14.00">x001y000</text>
</g>
<!-- x007y009 -->
<g id="node2" class="node">
<title>x007y009</title>
<ellipse fill="none" stroke="black" cx="275.77" cy="-2466" rx="47.77" ry="18"/>
<text text-anchor="middle" x="275.77" y="-2460.95" font-family="Times,serif" font-size="14.00">x007y009</text>
</g>
<!-- x001y000&#45;&#45;x007y009 -->
<g id="edge1" class="edge">
<title>x001y000&#45;&#45;x007y009</title>
<path fill="none" stroke="black" d="M275.77,-2519.7C275.77,-2508.85 275.77,-2494.92 275.77,-2484.1"/>
</g>
<!-- x007y035 -->
<g id="node3" class="node">
<title>x007y035</title>
<ellipse fill="none" stroke="black" cx="275.77" cy="-2394" rx="47.77" ry="18"/>
<text text-anchor="middle" x="275.77" y="-2388.95" font-family="Times,serif" font-size="14.00">x007y035</text>
</g>
<!-- x007y009&#45;&#45;x007y035 -->
<g id="edge2" class="edge">
<title>x007y009&#45;&#45;x007y035</title>
<path fill="none" stroke="black" d="M275.77,-2447.7C275.77,-2436.85 275.77,-2422.92 275.77,-2412.1"/>
</g>
<!-- x013y065 -->
<g id="node4" class="node">
<title>x013y065</title>
<ellipse fill="none" stroke="black" cx="275.77" cy="-2322" rx="47.77" ry="18"/>
<text text-anchor="middle" x="275.77" y="-2316.95" font-family="Times,serif" font-size="14.00">x013y065</text>
</g>
<!-- x007y035&#45;&#45;x013y065 -->
<g id="edge3" class="edge">
<title>x007y035&#45;&#45;x013y065</title>
<path fill="none" stroke="black" d="M275.77,-2375.7C275.77,-2364.85 275.77,-2350.92 275.77,-2340.1"/>
</g>
<!-- x009y077 -->
<g id="node5" class="node">
<title>x009y077</title>
<ellipse fill="none" stroke="black" cx="275.77" cy="-2250" rx="47.77" ry="18"/>
<text text-anchor="middle" x="275.77" y="-2244.95" font-family="Times,serif" font-size="14.00">x009y077</text>
</g>
<!-- x013y065&#45;&#45;x009y077 -->
<g id="edge4" class="edge">
<title>x013y065&#45;&#45;x009y077</title>
<path fill="none" stroke="black" d="M275.77,-2303.7C275.77,-2292.85 275.77,-2278.92 275.77,-2268.1"/>
</g>
<!-- x007y101 -->
<g id="node6" class="node">
<title>x007y101</title>
<ellipse fill="none" stroke="black" cx="275.77" cy="-2178" rx="47.77" ry="18"/>
<text text-anchor="middle" x="275.77" y="-2172.95" font-family="Times,serif" font-size="14.00">x007y101</text>
</g>
<!-- x009y077&#45;&#45;x007y101 -->
<g id="edge5" class="edge">
<title>x009y077&#45;&#45;x007y101</title>
<path fill="none" stroke="black" d="M275.77,-2231.7C275.77,-2220.85 275.77,-2206.92 275.77,-2196.1"/>
</g>
<!-- x033y133 -->
<g id="node7" class="node">
<title>x033y133</title>
<ellipse fill="none" stroke="black" cx="275.77" cy="-2106" rx="47.77" ry="18"/>
<text text-anchor="middle" x="275.77" y="-2100.95" font-family="Times,serif" font-size="14.00">x033y133</text>
</g>
<!-- x007y101&#45;&#45;x033y133 -->
<g id="edge6" class="edge">
<title>x007y101&#45;&#45;x033y133</title>
<path fill="none" stroke="black" d="M275.77,-2159.7C275.77,-2148.85 275.77,-2134.92 275.77,-2124.1"/>
</g>
<!-- x059y127 -->
<g id="node8" class="node">
<title>x059y127</title>
<ellipse fill="none" stroke="black" cx="275.77" cy="-2034" rx="47.77" ry="18"/>
<text text-anchor="middle" x="275.77" y="-2028.95" font-family="Times,serif" font-size="14.00">x059y127</text>
</g>
<!-- x033y133&#45;&#45;x059y127 -->
<g id="edge7" class="edge">
<title>x033y133&#45;&#45;x059y127</title>
<path fill="none" stroke="black" d="M275.77,-2087.7C275.77,-2076.85 275.77,-2062.92 275.77,-2052.1"/>
</g>
<!-- x077y135 -->
<g id="node9" class="node">
<title>x077y135</title>
<ellipse fill="none" stroke="black" cx="275.77" cy="-1962" rx="47.77" ry="18"/>
<text text-anchor="middle" x="275.77" y="-1956.95" font-family="Times,serif" font-size="14.00">x077y135</text>
</g>
<!-- x059y127&#45;&#45;x077y135 -->
<g id="edge8" class="edge">
<title>x059y127&#45;&#45;x077y135</title>
<path fill="none" stroke="black" d="M275.77,-2015.7C275.77,-2004.85 275.77,-1990.92 275.77,-1980.1"/>
</g>
<!-- x107y135 -->
<g id="node10" class="node">
<title>x107y135</title>
<ellipse fill="none" stroke="black" cx="275.77" cy="-1890" rx="47.77" ry="18"/>
<text text-anchor="middle" x="275.77" y="-1884.95" font-family="Times,serif" font-size="14.00">x107y135</text>
</g>
<!-- x077y135&#45;&#45;x107y135 -->
<g id="edge9" class="edge">
<title>x077y135&#45;&#45;x107y135</title>
<path fill="none" stroke="black" d="M275.77,-1943.7C275.77,-1932.85 275.77,-1918.92 275.77,-1908.1"/>
</g>
<!-- x125y137 -->
<g id="node11" class="node">
<title>x125y137</title>
<ellipse fill="none" stroke="black" cx="275.77" cy="-1818" rx="47.77" ry="18"/>
<text text-anchor="middle" x="275.77" y="-1812.95" font-family="Times,serif" font-size="14.00">x125y137</text>
</g>
<!-- x107y135&#45;&#45;x125y137 -->
<g id="edge10" class="edge">
<title>x107y135&#45;&#45;x125y137</title>
<path fill="none" stroke="black" d="M275.77,-1871.7C275.77,-1860.85 275.77,-1846.92 275.77,-1836.1"/>
</g>
<!-- x139y140 -->
<g id="node12" class="node">
<title>x139y140</title>
<ellipse fill="none" stroke="black" cx="161.77" cy="-1746" rx="47.77" ry="18"/>
<text text-anchor="middle" x="161.77" y="-1740.95" font-family="Times,serif" font-size="14.00">x139y140</text>
</g>
<!-- x125y137&#45;&#45;x139y140 -->
<g id="edge11" class="edge">
<title>x125y137&#45;&#45;x139y140</title>
<path fill="none" stroke="black" d="M251.59,-1802.15C232.25,-1790.28 205.25,-1773.7 185.91,-1761.82"/>
</g>
<!-- x135y101 -->
<g id="node13" class="node">
<title>x135y101</title>
<ellipse fill="none" stroke="black" cx="275.77" cy="-1746" rx="47.77" ry="18"/>
<text text-anchor="middle" x="275.77" y="-1740.95" font-family="Times,serif" font-size="14.00">x135y101</text>
</g>
<!-- x125y137&#45;&#45;x135y101 -->
<g id="edge12" class="edge">
<title>x125y137&#45;&#45;x135y101</title>
<path fill="none" stroke="black" d="M275.77,-1799.7C275.77,-1788.85 275.77,-1774.92 275.77,-1764.1"/>
</g>
<!-- x127y081 -->
<g id="node14" class="node">
<title>x127y081</title>
<ellipse fill="none" stroke="black" cx="275.77" cy="-1674" rx="47.77" ry="18"/>
<text text-anchor="middle" x="275.77" y="-1668.95" font-family="Times,serif" font-size="14.00">x127y081</text>
</g>
<!-- x135y101&#45;&#45;x127y081 -->
<g id="edge13" class="edge">
<title>x135y101&#45;&#45;x127y081</title>
<path fill="none" stroke="black" d="M275.77,-1727.7C275.77,-1716.85 275.77,-1702.92 275.77,-1692.1"/>
</g>
<!-- x131y065 -->
<g id="node15" class="node">
<title>x131y065</title>
<ellipse fill="none" stroke="black" cx="275.77" cy="-1602" rx="47.77" ry="18"/>
<text text-anchor="middle" x="275.77" y="-1596.95" font-family="Times,serif" font-size="14.00">x131y065</text>
</g>
<!-- x127y081&#45;&#45;x131y065 -->
<g id="edge14" class="edge">
<title>x127y081&#45;&#45;x131y065</title>
<path fill="none" stroke="black" d="M275.77,-1655.7C275.77,-1644.85 275.77,-1630.92 275.77,-1620.1"/>
</g>
<!-- x135y029 -->
<g id="node16" class="node">
<title>x135y029</title>
<ellipse fill="none" stroke="black" cx="275.77" cy="-1530" rx="47.77" ry="18"/>
<text text-anchor="middle" x="275.77" y="-1524.95" font-family="Times,serif" font-size="14.00">x135y029</text>
</g>
<!-- x131y065&#45;&#45;x135y029 -->
<g id="edge15" class="edge">
<title>x131y065&#45;&#45;x135y029</title>
<path fill="none" stroke="black" d="M275.77,-1583.7C275.77,-1572.85 275.77,-1558.92 275.77,-1548.1"/>
</g>
<!-- x111y015 -->
<g id="node17" class="node">
<title>x111y015</title>
<ellipse fill="none" stroke="black" cx="275.77" cy="-1458" rx="47.77" ry="18"/>
<text text-anchor="middle" x="275.77" y="-1452.95" font-family="Times,serif" font-size="14.00">x111y015</text>
</g>
<!-- x135y029&#45;&#45;x111y015 -->
<g id="edge16" class="edge">
<title>x135y029&#45;&#45;x111y015</title>
<path fill="none" stroke="black" d="M275.77,-1511.7C275.77,-1500.85 275.77,-1486.92 275.77,-1476.1"/>
</g>
<!-- x113y029 -->
<g id="node18" class="node">
<title>x113y029</title>
<ellipse fill="none" stroke="black" cx="275.77" cy="-1386" rx="47.77" ry="18"/>
<text text-anchor="middle" x="275.77" y="-1380.95" font-family="Times,serif" font-size="14.00">x113y029</text>
</g>
<!-- x111y015&#45;&#45;x113y029 -->
<g id="edge17" class="edge">
<title>x111y015&#45;&#45;x113y029</title>
<path fill="none" stroke="black" d="M275.77,-1439.7C275.77,-1428.85 275.77,-1414.92 275.77,-1404.1"/>
</g>
<!-- x107y065 -->
<g id="node19" class="node">
<title>x107y065</title>
<ellipse fill="none" stroke="black" cx="275.77" cy="-1314" rx="47.77" ry="18"/>
<text text-anchor="middle" x="275.77" y="-1308.95" font-family="Times,serif" font-size="14.00">x107y065</text>
</g>
<!-- x113y029&#45;&#45;x107y065 -->
<g id="edge18" class="edge">
<title>x113y029&#45;&#45;x107y065</title>
<path fill="none" stroke="black" d="M275.77,-1367.7C275.77,-1356.85 275.77,-1342.92 275.77,-1332.1"/>
</g>
<!-- x134y029 -->
<g id="node61" class="node">
<title>x134y029</title>
<ellipse fill="none" stroke="black" cx="389.77" cy="-1314" rx="47.77" ry="18"/>
<text text-anchor="middle" x="389.77" y="-1308.95" font-family="Times,serif" font-size="14.00">x134y029</text>
</g>
<!-- x113y029&#45;&#45;x134y029 -->
<g id="edge60" class="edge">
<title>x113y029&#45;&#45;x134y029</title>
<path fill="none" stroke="black" d="M299.95,-1370.15C319.29,-1358.28 346.29,-1341.7 365.63,-1329.82"/>
</g>
<!-- x105y083 -->
<g id="node20" class="node">
<title>x105y083</title>
<ellipse fill="none" stroke="black" cx="161.77" cy="-1242" rx="47.77" ry="18"/>
<text text-anchor="middle" x="161.77" y="-1236.95" font-family="Times,serif" font-size="14.00">x105y083</text>
</g>
<!-- x107y065&#45;&#45;x105y083 -->
<g id="edge19" class="edge">
<title>x107y065&#45;&#45;x105y083</title>
<path fill="none" stroke="black" d="M251.59,-1298.15C232.25,-1286.28 205.25,-1269.7 185.91,-1257.82"/>
</g>
<!-- x130y065 -->
<g id="node60" class="node">
<title>x130y065</title>
<ellipse fill="none" stroke="black" cx="275.77" cy="-1242" rx="47.77" ry="18"/>
<text text-anchor="middle" x="275.77" y="-1236.95" font-family="Times,serif" font-size="14.00">x130y065</text>
</g>
<!-- x107y065&#45;&#45;x130y065 -->
<g id="edge59" class="edge">
<title>x107y065&#45;&#45;x130y065</title>
<path fill="none" stroke="black" d="M275.77,-1295.7C275.77,-1284.85 275.77,-1270.92 275.77,-1260.1"/>
</g>
<!-- x109y099 -->
<g id="node21" class="node">
<title>x109y099</title>
<ellipse fill="none" stroke="black" cx="47.77" cy="-1170" rx="47.77" ry="18"/>
<text text-anchor="middle" x="47.77" y="-1164.95" font-family="Times,serif" font-size="14.00">x109y099</text>
</g>
<!-- x105y083&#45;&#45;x109y099 -->
<g id="edge20" class="edge">
<title>x105y083&#45;&#45;x109y099</title>
<path fill="none" stroke="black" d="M137.59,-1226.15C118.25,-1214.28 91.25,-1197.7 71.91,-1185.82"/>
</g>
<!-- x126y081 -->
<g id="node59" class="node">
<title>x126y081</title>
<ellipse fill="none" stroke="black" cx="161.77" cy="-1170" rx="47.77" ry="18"/>
<text text-anchor="middle" x="161.77" y="-1164.95" font-family="Times,serif" font-size="14.00">x126y081</text>
</g>
<!-- x105y083&#45;&#45;x126y081 -->
<g id="edge58" class="edge">
<title>x105y083&#45;&#45;x126y081</title>
<path fill="none" stroke="black" d="M161.77,-1223.7C161.77,-1212.85 161.77,-1198.92 161.77,-1188.1"/>
</g>
<!-- x107y134 -->
<g id="node22" class="node">
<title>x107y134</title>
<ellipse fill="none" stroke="black" cx="47.77" cy="-1098" rx="47.77" ry="18"/>
<text text-anchor="middle" x="47.77" y="-1092.95" font-family="Times,serif" font-size="14.00">x107y134</text>
</g>
<!-- x109y099&#45;&#45;x107y134 -->
<g id="edge21" class="edge">
<title>x109y099&#45;&#45;x107y134</title>
<path fill="none" stroke="black" d="M47.77,-1151.7C47.77,-1140.85 47.77,-1126.92 47.77,-1116.1"/>
</g>
<!-- x134y101 -->
<g id="node23" class="node">
<title>x134y101</title>
<ellipse fill="none" stroke="black" cx="161.77" cy="-1098" rx="47.77" ry="18"/>
<text text-anchor="middle" x="161.77" y="-1092.95" font-family="Times,serif" font-size="14.00">x134y101</text>
</g>
<!-- x109y099&#45;&#45;x134y101 -->
<g id="edge22" class="edge">
<title>x109y099&#45;&#45;x134y101</title>
<path fill="none" stroke="black" d="M71.95,-1154.15C91.29,-1142.28 118.29,-1125.7 137.63,-1113.82"/>
</g>
<!-- x079y109 -->
<g id="node24" class="node">
<title>x079y109</title>
<ellipse fill="none" stroke="black" cx="275.77" cy="-1098" rx="47.77" ry="18"/>
<text text-anchor="middle" x="275.77" y="-1092.95" font-family="Times,serif" font-size="14.00">x079y109</text>
</g>
<!-- x109y099&#45;&#45;x079y109 -->
<g id="edge23" class="edge">
<title>x109y099&#45;&#45;x079y109</title>
<path fill="none" stroke="black" d="M83.9,-1157.91C126.46,-1144.84 196.78,-1123.25 239.43,-1110.16"/>
</g>
<!-- x077y134 -->
<g id="node25" class="node">
<title>x077y134</title>
<ellipse fill="none" stroke="black" cx="275.77" cy="-1026" rx="47.77" ry="18"/>
<text text-anchor="middle" x="275.77" y="-1020.95" font-family="Times,serif" font-size="14.00">x077y134</text>
</g>
<!-- x079y109&#45;&#45;x077y134 -->
<g id="edge24" class="edge">
<title>x079y109&#45;&#45;x077y134</title>
<path fill="none" stroke="black" d="M275.77,-1079.7C275.77,-1068.85 275.77,-1054.92 275.77,-1044.1"/>
</g>
<!-- x075y083 -->
<g id="node26" class="node">
<title>x075y083</title>
<ellipse fill="none" stroke="black" cx="389.77" cy="-1026" rx="47.77" ry="18"/>
<text text-anchor="middle" x="389.77" y="-1020.95" font-family="Times,serif" font-size="14.00">x075y083</text>
</g>
<!-- x079y109&#45;&#45;x075y083 -->
<g id="edge25" class="edge">
<title>x079y109&#45;&#45;x075y083</title>
<path fill="none" stroke="black" d="M299.95,-1082.15C319.29,-1070.28 346.29,-1053.7 365.63,-1041.82"/>
</g>
<!-- x104y083 -->
<g id="node27" class="node">
<title>x104y083</title>
<ellipse fill="none" stroke="black" cx="389.77" cy="-954" rx="47.77" ry="18"/>
<text text-anchor="middle" x="389.77" y="-948.95" font-family="Times,serif" font-size="14.00">x104y083</text>
</g>
<!-- x075y083&#45;&#45;x104y083 -->
<g id="edge26" class="edge">
<title>x075y083&#45;&#45;x104y083</title>
<path fill="none" stroke="black" d="M389.77,-1007.7C389.77,-996.85 389.77,-982.92 389.77,-972.1"/>
</g>
<!-- x089y061 -->
<g id="node28" class="node">
<title>x089y061</title>
<ellipse fill="none" stroke="black" cx="503.77" cy="-954" rx="47.77" ry="18"/>
<text text-anchor="middle" x="503.77" y="-948.95" font-family="Times,serif" font-size="14.00">x089y061</text>
</g>
<!-- x075y083&#45;&#45;x089y061 -->
<g id="edge27" class="edge">
<title>x075y083&#45;&#45;x089y061</title>
<path fill="none" stroke="black" d="M413.95,-1010.15C433.29,-998.28 460.29,-981.7 479.63,-969.82"/>
</g>
<!-- x106y065 -->
<g id="node29" class="node">
<title>x106y065</title>
<ellipse fill="none" stroke="black" cx="389.77" cy="-882" rx="47.77" ry="18"/>
<text text-anchor="middle" x="389.77" y="-876.95" font-family="Times,serif" font-size="14.00">x106y065</text>
</g>
<!-- x089y061&#45;&#45;x106y065 -->
<g id="edge28" class="edge">
<title>x089y061&#45;&#45;x106y065</title>
<path fill="none" stroke="black" d="M479.59,-938.15C460.25,-926.28 433.25,-909.7 413.91,-897.82"/>
</g>
<!-- x083y037 -->
<g id="node30" class="node">
<title>x083y037</title>
<ellipse fill="none" stroke="black" cx="503.77" cy="-882" rx="47.77" ry="18"/>
<text text-anchor="middle" x="503.77" y="-876.95" font-family="Times,serif" font-size="14.00">x083y037</text>
</g>
<!-- x089y061&#45;&#45;x083y037 -->
<g id="edge29" class="edge">
<title>x089y061&#45;&#45;x083y037</title>
<path fill="none" stroke="black" d="M503.77,-935.7C503.77,-924.85 503.77,-910.92 503.77,-900.1"/>
</g>
<!-- x112y029 -->
<g id="node31" class="node">
<title>x112y029</title>
<ellipse fill="none" stroke="black" cx="503.77" cy="-810" rx="47.77" ry="18"/>
<text text-anchor="middle" x="503.77" y="-804.95" font-family="Times,serif" font-size="14.00">x112y029</text>
</g>
<!-- x083y037&#45;&#45;x112y029 -->
<g id="edge30" class="edge">
<title>x083y037&#45;&#45;x112y029</title>
<path fill="none" stroke="black" d="M503.77,-863.7C503.77,-852.85 503.77,-838.92 503.77,-828.1"/>
</g>
<!-- x083y017 -->
<g id="node32" class="node">
<title>x083y017</title>
<ellipse fill="none" stroke="black" cx="617.77" cy="-810" rx="47.77" ry="18"/>
<text text-anchor="middle" x="617.77" y="-804.95" font-family="Times,serif" font-size="14.00">x083y017</text>
</g>
<!-- x083y037&#45;&#45;x083y017 -->
<g id="edge31" class="edge">
<title>x083y037&#45;&#45;x083y017</title>
<path fill="none" stroke="black" d="M527.95,-866.15C547.29,-854.28 574.29,-837.7 593.63,-825.82"/>
</g>
<!-- x110y015 -->
<g id="node33" class="node">
<title>x110y015</title>
<ellipse fill="none" stroke="black" cx="617.77" cy="-738" rx="47.77" ry="18"/>
<text text-anchor="middle" x="617.77" y="-732.95" font-family="Times,serif" font-size="14.00">x110y015</text>
</g>
<!-- x083y017&#45;&#45;x110y015 -->
<g id="edge32" class="edge">
<title>x083y017&#45;&#45;x110y015</title>
<path fill="none" stroke="black" d="M617.77,-791.7C617.77,-780.85 617.77,-766.92 617.77,-756.1"/>
</g>
<!-- x057y011 -->
<g id="node34" class="node">
<title>x057y011</title>
<ellipse fill="none" stroke="black" cx="731.77" cy="-738" rx="47.77" ry="18"/>
<text text-anchor="middle" x="731.77" y="-732.95" font-family="Times,serif" font-size="14.00">x057y011</text>
</g>
<!-- x083y017&#45;&#45;x057y011 -->
<g id="edge33" class="edge">
<title>x083y017&#45;&#45;x057y011</title>
<path fill="none" stroke="black" d="M641.95,-794.15C661.29,-782.28 688.29,-765.7 707.63,-753.82"/>
</g>
<!-- x061y039 -->
<g id="node35" class="node">
<title>x061y039</title>
<ellipse fill="none" stroke="black" cx="731.77" cy="-666" rx="47.77" ry="18"/>
<text text-anchor="middle" x="731.77" y="-660.95" font-family="Times,serif" font-size="14.00">x061y039</text>
</g>
<!-- x057y011&#45;&#45;x061y039 -->
<g id="edge34" class="edge">
<title>x057y011&#45;&#45;x061y039</title>
<path fill="none" stroke="black" d="M731.77,-719.7C731.77,-708.85 731.77,-694.92 731.77,-684.1"/>
</g>
<!-- x059y053 -->
<g id="node36" class="node">
<title>x059y053</title>
<ellipse fill="none" stroke="black" cx="617.77" cy="-594" rx="47.77" ry="18"/>
<text text-anchor="middle" x="617.77" y="-588.95" font-family="Times,serif" font-size="14.00">x059y053</text>
</g>
<!-- x061y039&#45;&#45;x059y053 -->
<g id="edge35" class="edge">
<title>x061y039&#45;&#45;x059y053</title>
<path fill="none" stroke="black" d="M707.59,-650.15C688.25,-638.28 661.25,-621.7 641.91,-609.82"/>
</g>
<!-- x082y037 -->
<g id="node58" class="node">
<title>x082y037</title>
<ellipse fill="none" stroke="black" cx="731.77" cy="-594" rx="47.77" ry="18"/>
<text text-anchor="middle" x="731.77" y="-588.95" font-family="Times,serif" font-size="14.00">x082y037</text>
</g>
<!-- x061y039&#45;&#45;x082y037 -->
<g id="edge57" class="edge">
<title>x061y039&#45;&#45;x082y037</title>
<path fill="none" stroke="black" d="M731.77,-647.7C731.77,-636.85 731.77,-622.92 731.77,-612.1"/>
</g>
<!-- x061y081 -->
<g id="node37" class="node">
<title>x061y081</title>
<ellipse fill="none" stroke="black" cx="503.77" cy="-522" rx="47.77" ry="18"/>
<text text-anchor="middle" x="503.77" y="-516.95" font-family="Times,serif" font-size="14.00">x061y081</text>
</g>
<!-- x059y053&#45;&#45;x061y081 -->
<g id="edge36" class="edge">
<title>x059y053&#45;&#45;x061y081</title>
<path fill="none" stroke="black" d="M593.59,-578.15C574.25,-566.28 547.25,-549.7 527.91,-537.82"/>
</g>
<!-- x088y061 -->
<g id="node57" class="node">
<title>x088y061</title>
<ellipse fill="none" stroke="black" cx="617.77" cy="-522" rx="47.77" ry="18"/>
<text text-anchor="middle" x="617.77" y="-516.95" font-family="Times,serif" font-size="14.00">x088y061</text>
</g>
<!-- x059y053&#45;&#45;x088y061 -->
<g id="edge56" class="edge">
<title>x059y053&#45;&#45;x088y061</title>
<path fill="none" stroke="black" d="M617.77,-575.7C617.77,-564.85 617.77,-550.92 617.77,-540.1"/>
</g>
<!-- x065y101 -->
<g id="node38" class="node">
<title>x065y101</title>
<ellipse fill="none" stroke="black" cx="503.77" cy="-450" rx="47.77" ry="18"/>
<text text-anchor="middle" x="503.77" y="-444.95" font-family="Times,serif" font-size="14.00">x065y101</text>
</g>
<!-- x061y081&#45;&#45;x065y101 -->
<g id="edge37" class="edge">
<title>x061y081&#45;&#45;x065y101</title>
<path fill="none" stroke="black" d="M503.77,-503.7C503.77,-492.85 503.77,-478.92 503.77,-468.1"/>
</g>
<!-- x074y083 -->
<g id="node56" class="node">
<title>x074y083</title>
<ellipse fill="none" stroke="black" cx="617.77" cy="-450" rx="47.77" ry="18"/>
<text text-anchor="middle" x="617.77" y="-444.95" font-family="Times,serif" font-size="14.00">x074y083</text>
</g>
<!-- x061y081&#45;&#45;x074y083 -->
<g id="edge55" class="edge">
<title>x061y081&#45;&#45;x074y083</title>
<path fill="none" stroke="black" d="M527.95,-506.15C547.29,-494.28 574.29,-477.7 593.63,-465.82"/>
</g>
<!-- x059y126 -->
<g id="node39" class="node">
<title>x059y126</title>
<ellipse fill="none" stroke="black" cx="275.77" cy="-378" rx="47.77" ry="18"/>
<text text-anchor="middle" x="275.77" y="-372.95" font-family="Times,serif" font-size="14.00">x059y126</text>
</g>
<!-- x065y101&#45;&#45;x059y126 -->
<g id="edge38" class="edge">
<title>x065y101&#45;&#45;x059y126</title>
<path fill="none" stroke="black" d="M467.64,-437.91C425.07,-424.84 354.76,-403.25 312.1,-390.16"/>
</g>
<!-- x078y109 -->
<g id="node40" class="node">
<title>x078y109</title>
<ellipse fill="none" stroke="black" cx="389.77" cy="-378" rx="47.77" ry="18"/>
<text text-anchor="middle" x="389.77" y="-372.95" font-family="Times,serif" font-size="14.00">x078y109</text>
</g>
<!-- x065y101&#45;&#45;x078y109 -->
<g id="edge39" class="edge">
<title>x065y101&#45;&#45;x078y109</title>
<path fill="none" stroke="black" d="M479.59,-434.15C460.25,-422.28 433.25,-405.7 413.91,-393.82"/>
</g>
<!-- x029y105 -->
<g id="node41" class="node">
<title>x029y105</title>
<ellipse fill="none" stroke="black" cx="503.77" cy="-378" rx="47.77" ry="18"/>
<text text-anchor="middle" x="503.77" y="-372.95" font-family="Times,serif" font-size="14.00">x029y105</text>
</g>
<!-- x065y101&#45;&#45;x029y105 -->
<g id="edge40" class="edge">
<title>x065y101&#45;&#45;x029y105</title>
<path fill="none" stroke="black" d="M503.77,-431.7C503.77,-420.85 503.77,-406.92 503.77,-396.1"/>
</g>
<!-- x033y132 -->
<g id="node42" class="node">
<title>x033y132</title>
<ellipse fill="none" stroke="black" cx="503.77" cy="-306" rx="47.77" ry="18"/>
<text text-anchor="middle" x="503.77" y="-300.95" font-family="Times,serif" font-size="14.00">x033y132</text>
</g>
<!-- x029y105&#45;&#45;x033y132 -->
<g id="edge41" class="edge">
<title>x029y105&#45;&#45;x033y132</title>
<path fill="none" stroke="black" d="M503.77,-359.7C503.77,-348.85 503.77,-334.92 503.77,-324.1"/>
</g>
<!-- x029y089 -->
<g id="node43" class="node">
<title>x029y089</title>
<ellipse fill="none" stroke="black" cx="617.77" cy="-306" rx="47.77" ry="18"/>
<text text-anchor="middle" x="617.77" y="-300.95" font-family="Times,serif" font-size="14.00">x029y089</text>
</g>
<!-- x029y105&#45;&#45;x029y089 -->
<g id="edge42" class="edge">
<title>x029y105&#45;&#45;x029y089</title>
<path fill="none" stroke="black" d="M527.95,-362.15C547.29,-350.28 574.29,-333.7 593.63,-321.82"/>
</g>
<!-- x008y101 -->
<g id="node55" class="node">
<title>x008y101</title>
<ellipse fill="none" stroke="black" cx="731.77" cy="-306" rx="47.77" ry="18"/>
<text text-anchor="middle" x="731.77" y="-300.95" font-family="Times,serif" font-size="14.00">x008y101</text>
</g>
<!-- x029y105&#45;&#45;x008y101 -->
<g id="edge54" class="edge">
<title>x029y105&#45;&#45;x008y101</title>
<path fill="none" stroke="black" d="M539.9,-365.91C582.46,-352.84 652.78,-331.25 695.43,-318.16"/>
</g>
<!-- x060y081 -->
<g id="node44" class="node">
<title>x060y081</title>
<ellipse fill="none" stroke="black" cx="617.77" cy="-234" rx="47.77" ry="18"/>
<text text-anchor="middle" x="617.77" y="-228.95" font-family="Times,serif" font-size="14.00">x060y081</text>
</g>
<!-- x029y089&#45;&#45;x060y081 -->
<g id="edge43" class="edge">
<title>x029y089&#45;&#45;x060y081</title>
<path fill="none" stroke="black" d="M617.77,-287.7C617.77,-276.85 617.77,-262.92 617.77,-252.1"/>
</g>
<!-- x031y067 -->
<g id="node45" class="node">
<title>x031y067</title>
<ellipse fill="none" stroke="black" cx="731.77" cy="-234" rx="47.77" ry="18"/>
<text text-anchor="middle" x="731.77" y="-228.95" font-family="Times,serif" font-size="14.00">x031y067</text>
</g>
<!-- x029y089&#45;&#45;x031y067 -->
<g id="edge44" class="edge">
<title>x029y089&#45;&#45;x031y067</title>
<path fill="none" stroke="black" d="M641.95,-290.15C661.29,-278.28 688.29,-261.7 707.63,-249.82"/>
</g>
<!-- x010y077 -->
<g id="node54" class="node">
<title>x010y077</title>
<ellipse fill="none" stroke="black" cx="845.77" cy="-234" rx="47.77" ry="18"/>
<text text-anchor="middle" x="845.77" y="-228.95" font-family="Times,serif" font-size="14.00">x010y077</text>
</g>
<!-- x029y089&#45;&#45;x010y077 -->
<g id="edge53" class="edge">
<title>x029y089&#45;&#45;x010y077</title>
<path fill="none" stroke="black" d="M653.9,-293.91C696.46,-280.84 766.78,-259.25 809.43,-246.16"/>
</g>
<!-- x058y053 -->
<g id="node46" class="node">
<title>x058y053</title>
<ellipse fill="none" stroke="black" cx="617.77" cy="-162" rx="47.77" ry="18"/>
<text text-anchor="middle" x="617.77" y="-156.95" font-family="Times,serif" font-size="14.00">x058y053</text>
</g>
<!-- x031y067&#45;&#45;x058y053 -->
<g id="edge45" class="edge">
<title>x031y067&#45;&#45;x058y053</title>
<path fill="none" stroke="black" d="M707.59,-218.15C688.25,-206.28 661.25,-189.7 641.91,-177.82"/>
</g>
<!-- x043y039 -->
<g id="node47" class="node">
<title>x043y039</title>
<ellipse fill="none" stroke="black" cx="731.77" cy="-162" rx="47.77" ry="18"/>
<text text-anchor="middle" x="731.77" y="-156.95" font-family="Times,serif" font-size="14.00">x043y039</text>
</g>
<!-- x031y067&#45;&#45;x043y039 -->
<g id="edge46" class="edge">
<title>x031y067&#45;&#45;x043y039</title>
<path fill="none" stroke="black" d="M731.77,-215.7C731.77,-204.85 731.77,-190.92 731.77,-180.1"/>
</g>
<!-- x014y065 -->
<g id="node53" class="node">
<title>x014y065</title>
<ellipse fill="none" stroke="black" cx="845.77" cy="-162" rx="47.77" ry="18"/>
<text text-anchor="middle" x="845.77" y="-156.95" font-family="Times,serif" font-size="14.00">x014y065</text>
</g>
<!-- x031y067&#45;&#45;x014y065 -->
<g id="edge52" class="edge">
<title>x031y067&#45;&#45;x014y065</title>
<path fill="none" stroke="black" d="M755.95,-218.15C775.29,-206.28 802.29,-189.7 821.63,-177.82"/>
</g>
<!-- x060y039 -->
<g id="node48" class="node">
<title>x060y039</title>
<ellipse fill="none" stroke="black" cx="617.77" cy="-90" rx="47.77" ry="18"/>
<text text-anchor="middle" x="617.77" y="-84.95" font-family="Times,serif" font-size="14.00">x060y039</text>
</g>
<!-- x043y039&#45;&#45;x060y039 -->
<g id="edge47" class="edge">
<title>x043y039&#45;&#45;x060y039</title>
<path fill="none" stroke="black" d="M707.59,-146.15C688.25,-134.28 661.25,-117.7 641.91,-105.82"/>
</g>
<!-- x041y005 -->
<g id="node49" class="node">
<title>x041y005</title>
<ellipse fill="none" stroke="black" cx="731.77" cy="-90" rx="47.77" ry="18"/>
<text text-anchor="middle" x="731.77" y="-84.95" font-family="Times,serif" font-size="14.00">x041y005</text>
</g>
<!-- x043y039&#45;&#45;x041y005 -->
<g id="edge48" class="edge">
<title>x043y039&#45;&#45;x041y005</title>
<path fill="none" stroke="black" d="M731.77,-143.7C731.77,-132.85 731.77,-118.92 731.77,-108.1"/>
</g>
<!-- x008y035 -->
<g id="node52" class="node">
<title>x008y035</title>
<ellipse fill="none" stroke="black" cx="845.77" cy="-90" rx="47.77" ry="18"/>
<text text-anchor="middle" x="845.77" y="-84.95" font-family="Times,serif" font-size="14.00">x008y035</text>
</g>
<!-- x043y039&#45;&#45;x008y035 -->
<g id="edge51" class="edge">
<title>x043y039&#45;&#45;x008y035</title>
<path fill="none" stroke="black" d="M755.95,-146.15C775.29,-134.28 802.29,-117.7 821.63,-105.82"/>
</g>
<!-- x056y011 -->
<g id="node50" class="node">
<title>x056y011</title>
<ellipse fill="none" stroke="black" cx="617.77" cy="-18" rx="47.77" ry="18"/>
<text text-anchor="middle" x="617.77" y="-12.95" font-family="Times,serif" font-size="14.00">x056y011</text>
</g>
<!-- x041y005&#45;&#45;x056y011 -->
<g id="edge49" class="edge">
<title>x041y005&#45;&#45;x056y011</title>
<path fill="none" stroke="black" d="M707.59,-74.15C688.25,-62.28 661.25,-45.7 641.91,-33.82"/>
</g>
<!-- x008y009 -->
<g id="node51" class="node">
<title>x008y009</title>
<ellipse fill="none" stroke="black" cx="731.77" cy="-18" rx="47.77" ry="18"/>
<text text-anchor="middle" x="731.77" y="-12.95" font-family="Times,serif" font-size="14.00">x008y009</text>
</g>
<!-- x041y005&#45;&#45;x008y009 -->
<g id="edge50" class="edge">
<title>x041y005&#45;&#45;x008y009</title>
<path fill="none" stroke="black" d="M731.77,-71.7C731.77,-60.85 731.77,-46.92 731.77,-36.1"/>
</g>
</g>
</svg>
