<?xml version="1.0" encoding="UTF-8" standalone="no"?>
<!DOCTYPE svg PUBLIC "-//W3C//DTD SVG 1.1//EN"
 "http://www.w3.org/Graphics/SVG/1.1/DTD/svg11.dtd">
<!-- Generated by graphviz version 12.1.2 (0)
 -->
<!-- Title: weighted Pages: 1 -->
<svg width="603pt" height="1018pt"
 viewBox="0.00 0.00 602.54 1017.50" xmlns="http://www.w3.org/2000/svg" xmlns:xlink="http://www.w3.org/1999/xlink">
<g id="graph0" class="graph" transform="scale(1 1) rotate(0) translate(4 1013.5)">
<title>weighted</title>
<polygon fill="white" stroke="none" points="-4,4 -4,-1013.5 598.54,-1013.5 598.54,4 -4,4"/>
<!-- x043y039 -->
<g id="node1" class="node">
<title>x043y039</title>
<ellipse fill="none" stroke="black" cx="432.77" cy="-549" rx="47.77" ry="18"/>
<text text-anchor="middle" x="432.77" y="-543.95" font-family="Times,serif" font-size="14.00">x043y039</text>
</g>
<!-- x061y039 -->
<g id="node2" class="node">
<title>x061y039</title>
<ellipse fill="none" stroke="black" cx="432.77" cy="-460.5" rx="47.77" ry="18"/>
<text text-anchor="middle" x="432.77" y="-455.45" font-family="Times,serif" font-size="14.00">x061y039</text>
</g>
<!-- x043y039&#45;&#45;x061y039 -->
<g id="edge1" class="edge">
<title>x043y039&#45;&#45;x061y039</title>
<path fill="none" stroke="black" d="M432.77,-530.91C432.77,-515.84 432.77,-493.99 432.77,-478.85"/>
<text text-anchor="middle" x="439.52" y="-499.7" font-family="Times,serif" font-size="14.00">90</text>
</g>
<!-- x083y037 -->
<g id="node16" class="node">
<title>x083y037</title>
<ellipse fill="none" stroke="black" cx="447.77" cy="-372" rx="47.77" ry="18"/>
<text text-anchor="middle" x="447.77" y="-366.95" font-family="Times,serif" font-size="14.00">x083y037</text>
</g>
<!-- x061y039&#45;&#45;x083y037 -->
<g id="edge13" class="edge">
<title>x061y039&#45;&#45;x083y037</title>
<path fill="none" stroke="black" d="M435.73,-442.41C438.34,-427.34 442.13,-405.49 444.76,-390.35"/>
<text text-anchor="middle" x="451.74" y="-411.2" font-family="Times,serif" font-size="14.00">124</text>
</g>
<!-- x105y083 -->
<g id="node3" class="node">
<title>x105y083</title>
<ellipse fill="none" stroke="black" cx="275.77" cy="-283.5" rx="47.77" ry="18"/>
<text text-anchor="middle" x="275.77" y="-278.45" font-family="Times,serif" font-size="14.00">x105y083</text>
</g>
<!-- x127y081 -->
<g id="node4" class="node">
<title>x127y081</title>
<ellipse fill="none" stroke="black" cx="275.77" cy="-195" rx="47.77" ry="18"/>
<text text-anchor="middle" x="275.77" y="-189.95" font-family="Times,serif" font-size="14.00">x127y081</text>
</g>
<!-- x105y083&#45;&#45;x127y081 -->
<g id="edge2" class="edge">
<title>x105y083&#45;&#45;x127y081</title>
<path fill="none" stroke="black" d="M275.77,-265.41C275.77,-250.34 275.77,-228.49 275.77,-213.35"/>
<text text-anchor="middle" x="285.89" y="-234.2" font-family="Times,serif" font-size="14.00">128</text>
</g>
<!-- x107y065 -->
<g id="node11" class="node">
<title>x107y065</title>
<ellipse fill="none" stroke="black" cx="389.77" cy="-195" rx="47.77" ry="18"/>
<text text-anchor="middle" x="389.77" y="-189.95" font-family="Times,serif" font-size="14.00">x107y065</text>
</g>
<!-- x105y083&#45;&#45;x107y065 -->
<g id="edge57" class="edge">
<title>x105y083&#45;&#45;x107y065</title>
<path fill="none" stroke="black" d="M296.41,-266.84C317.07,-251.16 348.67,-227.18 369.28,-211.55"/>
<text text-anchor="middle" x="349.73" y="-234.2" font-family="Times,serif" font-size="14.00">52</text>
</g>
<!-- x109y099 -->
<g id="node36" class="node">
<title>x109y099</title>
<ellipse fill="none" stroke="black" cx="161.77" cy="-195" rx="47.77" ry="18"/>
<text text-anchor="middle" x="161.77" y="-189.95" font-family="Times,serif" font-size="14.00">x109y099</text>
</g>
<!-- x105y083&#45;&#45;x109y099 -->
<g id="edge48" class="edge">
<title>x105y083&#45;&#45;x109y099</title>
<path fill="none" stroke="black" d="M255.12,-266.84C234.46,-251.16 202.87,-227.18 182.26,-211.55"/>
<text text-anchor="middle" x="235.73" y="-234.2" font-family="Times,serif" font-size="14.00">68</text>
</g>
<!-- x131y065 -->
<g id="node20" class="node">
<title>x131y065</title>
<ellipse fill="none" stroke="black" cx="350.77" cy="-106.5" rx="47.77" ry="18"/>
<text text-anchor="middle" x="350.77" y="-101.45" font-family="Times,serif" font-size="14.00">x131y065</text>
</g>
<!-- x127y081&#45;&#45;x131y065 -->
<g id="edge42" class="edge">
<title>x127y081&#45;&#45;x131y065</title>
<path fill="none" stroke="black" d="M289.88,-177.73C303.2,-162.36 323.08,-139.43 336.47,-123.99"/>
<text text-anchor="middle" x="330.11" y="-145.7" font-family="Times,serif" font-size="14.00">100</text>
</g>
<!-- x135y101 -->
<g id="node33" class="node">
<title>x135y101</title>
<ellipse fill="none" stroke="black" cx="161.77" cy="-106.5" rx="47.77" ry="18"/>
<text text-anchor="middle" x="161.77" y="-101.45" font-family="Times,serif" font-size="14.00">x135y101</text>
</g>
<!-- x127y081&#45;&#45;x135y101 -->
<g id="edge37" class="edge">
<title>x127y081&#45;&#45;x135y101</title>
<path fill="none" stroke="black" d="M255.12,-178.34C234.46,-162.66 202.87,-138.68 182.26,-123.05"/>
<text text-anchor="middle" x="239.1" y="-145.7" font-family="Times,serif" font-size="14.00">152</text>
</g>
<!-- x007y101 -->
<g id="node5" class="node">
<title>x007y101</title>
<ellipse fill="none" stroke="black" cx="166.77" cy="-903" rx="47.77" ry="18"/>
<text text-anchor="middle" x="166.77" y="-897.95" font-family="Times,serif" font-size="14.00">x007y101</text>
</g>
<!-- x033y133 -->
<g id="node6" class="node">
<title>x033y133</title>
<ellipse fill="none" stroke="black" cx="90.77" cy="-549" rx="47.77" ry="18"/>
<text text-anchor="middle" x="90.77" y="-543.95" font-family="Times,serif" font-size="14.00">x033y133</text>
</g>
<!-- x007y101&#45;&#45;x033y133 -->
<g id="edge3" class="edge">
<title>x007y101&#45;&#45;x033y133</title>
<path fill="none" stroke="black" d="M141.46,-887.28C119.35,-872.31 90.77,-846.88 90.77,-815.5 90.77,-815.5 90.77,-815.5 90.77,-636.5 90.77,-612.47 90.77,-584.69 90.77,-567.23"/>
<text text-anchor="middle" x="100.89" y="-720.95" font-family="Times,serif" font-size="14.00">382</text>
</g>
<!-- x009y077 -->
<g id="node26" class="node">
<title>x009y077</title>
<ellipse fill="none" stroke="black" cx="242.77" cy="-814.5" rx="47.77" ry="18"/>
<text text-anchor="middle" x="242.77" y="-809.45" font-family="Times,serif" font-size="14.00">x009y077</text>
</g>
<!-- x007y101&#45;&#45;x009y077 -->
<g id="edge55" class="edge">
<title>x007y101&#45;&#45;x009y077</title>
<path fill="none" stroke="black" d="M181.06,-885.73C194.57,-870.36 214.71,-847.43 228.28,-831.99"/>
<text text-anchor="middle" x="221.7" y="-853.7" font-family="Times,serif" font-size="14.00">170</text>
</g>
<!-- x029y105 -->
<g id="node35" class="node">
<title>x029y105</title>
<ellipse fill="none" stroke="black" cx="166.77" cy="-637.5" rx="47.77" ry="18"/>
<text text-anchor="middle" x="166.77" y="-632.45" font-family="Times,serif" font-size="14.00">x029y105</text>
</g>
<!-- x007y101&#45;&#45;x029y105 -->
<g id="edge41" class="edge">
<title>x007y101&#45;&#45;x029y105</title>
<path fill="none" stroke="black" d="M166.77,-884.71C166.77,-836.97 166.77,-703.67 166.77,-655.85"/>
<text text-anchor="middle" x="176.89" y="-765.2" font-family="Times,serif" font-size="14.00">134</text>
</g>
<!-- x059y127 -->
<g id="node17" class="node">
<title>x059y127</title>
<ellipse fill="none" stroke="black" cx="90.77" cy="-460.5" rx="47.77" ry="18"/>
<text text-anchor="middle" x="90.77" y="-455.45" font-family="Times,serif" font-size="14.00">x059y127</text>
</g>
<!-- x033y133&#45;&#45;x059y127 -->
<g id="edge33" class="edge">
<title>x033y133&#45;&#45;x059y127</title>
<path fill="none" stroke="black" d="M90.77,-530.91C90.77,-515.84 90.77,-493.99 90.77,-478.85"/>
<text text-anchor="middle" x="100.89" y="-499.7" font-family="Times,serif" font-size="14.00">232</text>
</g>
<!-- x007y009 -->
<g id="node7" class="node">
<title>x007y009</title>
<ellipse fill="none" stroke="black" cx="489.77" cy="-903" rx="47.77" ry="18"/>
<text text-anchor="middle" x="489.77" y="-897.95" font-family="Times,serif" font-size="14.00">x007y009</text>
</g>
<!-- x041y005 -->
<g id="node8" class="node">
<title>x041y005</title>
<ellipse fill="none" stroke="black" cx="508.77" cy="-637.5" rx="47.77" ry="18"/>
<text text-anchor="middle" x="508.77" y="-632.45" font-family="Times,serif" font-size="14.00">x041y005</text>
</g>
<!-- x007y009&#45;&#45;x041y005 -->
<g id="edge4" class="edge">
<title>x007y009&#45;&#45;x041y005</title>
<path fill="none" stroke="black" d="M491.02,-884.71C494.46,-836.97 504.07,-703.67 507.52,-655.85"/>
<text text-anchor="middle" x="509.83" y="-765.2" font-family="Times,serif" font-size="14.00">306</text>
</g>
<!-- x007y035 -->
<g id="node23" class="node">
<title>x007y035</title>
<ellipse fill="none" stroke="black" cx="432.77" cy="-814.5" rx="47.77" ry="18"/>
<text text-anchor="middle" x="432.77" y="-809.45" font-family="Times,serif" font-size="14.00">x007y035</text>
</g>
<!-- x007y009&#45;&#45;x007y035 -->
<g id="edge56" class="edge">
<title>x007y009&#45;&#45;x007y035</title>
<path fill="none" stroke="black" d="M478.78,-885.32C468.75,-870.1 454,-847.72 443.92,-832.42"/>
<text text-anchor="middle" x="476.5" y="-853.7" font-family="Times,serif" font-size="14.00">198</text>
</g>
<!-- x041y005&#45;&#45;x043y039 -->
<g id="edge23" class="edge">
<title>x041y005&#45;&#45;x043y039</title>
<path fill="none" stroke="black" d="M494.47,-620.23C480.97,-604.86 460.82,-581.93 447.26,-566.49"/>
<text text-anchor="middle" x="487.7" y="-588.2" font-family="Times,serif" font-size="14.00">232</text>
</g>
<!-- x057y011 -->
<g id="node22" class="node">
<title>x057y011</title>
<ellipse fill="none" stroke="black" cx="546.77" cy="-549" rx="47.77" ry="18"/>
<text text-anchor="middle" x="546.77" y="-543.95" font-family="Times,serif" font-size="14.00">x057y011</text>
</g>
<!-- x041y005&#45;&#45;x057y011 -->
<g id="edge16" class="edge">
<title>x041y005&#45;&#45;x057y011</title>
<path fill="none" stroke="black" d="M516.28,-619.41C522.94,-604.25 532.62,-582.21 539.28,-567.05"/>
<text text-anchor="middle" x="537.92" y="-588.2" font-family="Times,serif" font-size="14.00">94</text>
</g>
<!-- x075y083 -->
<g id="node9" class="node">
<title>x075y083</title>
<ellipse fill="none" stroke="black" cx="275.77" cy="-372" rx="47.77" ry="18"/>
<text text-anchor="middle" x="275.77" y="-366.95" font-family="Times,serif" font-size="14.00">x075y083</text>
</g>
<!-- x075y083&#45;&#45;x105y083 -->
<g id="edge5" class="edge">
<title>x075y083&#45;&#45;x105y083</title>
<path fill="none" stroke="black" d="M275.77,-353.91C275.77,-338.84 275.77,-316.99 275.77,-301.85"/>
<text text-anchor="middle" x="285.89" y="-322.7" font-family="Times,serif" font-size="14.00">186</text>
</g>
<!-- x089y061 -->
<g id="node10" class="node">
<title>x089y061</title>
<ellipse fill="none" stroke="black" cx="389.77" cy="-283.5" rx="47.77" ry="18"/>
<text text-anchor="middle" x="389.77" y="-278.45" font-family="Times,serif" font-size="14.00">x089y061</text>
</g>
<!-- x075y083&#45;&#45;x089y061 -->
<g id="edge50" class="edge">
<title>x075y083&#45;&#45;x089y061</title>
<path fill="none" stroke="black" d="M288.03,-354.23C296.55,-343.37 308.66,-329.46 321.52,-319.5 332.68,-310.86 346.3,-303.37 358.43,-297.56"/>
<text text-anchor="middle" x="331.64" y="-322.7" font-family="Times,serif" font-size="14.00">168</text>
</g>
<!-- x079y109 -->
<g id="node14" class="node">
<title>x079y109</title>
<ellipse fill="none" stroke="black" cx="161.77" cy="-283.5" rx="47.77" ry="18"/>
<text text-anchor="middle" x="161.77" y="-278.45" font-family="Times,serif" font-size="14.00">x079y109</text>
</g>
<!-- x075y083&#45;&#45;x079y109 -->
<g id="edge28" class="edge">
<title>x075y083&#45;&#45;x079y109</title>
<path fill="none" stroke="black" d="M255.12,-355.34C234.46,-339.66 202.87,-315.68 182.26,-300.05"/>
<text text-anchor="middle" x="239.1" y="-322.7" font-family="Times,serif" font-size="14.00">146</text>
</g>
<!-- x089y061&#45;&#45;x107y065 -->
<g id="edge6" class="edge">
<title>x089y061&#45;&#45;x107y065</title>
<path fill="none" stroke="black" d="M389.77,-265.41C389.77,-250.34 389.77,-228.49 389.77,-213.35"/>
<text text-anchor="middle" x="396.52" y="-234.2" font-family="Times,serif" font-size="14.00">50</text>
</g>
<!-- x113y029 -->
<g id="node15" class="node">
<title>x113y029</title>
<ellipse fill="none" stroke="black" cx="464.77" cy="-106.5" rx="47.77" ry="18"/>
<text text-anchor="middle" x="464.77" y="-101.45" font-family="Times,serif" font-size="14.00">x113y029</text>
</g>
<!-- x107y065&#45;&#45;x113y029 -->
<g id="edge9" class="edge">
<title>x107y065&#45;&#45;x113y029</title>
<path fill="none" stroke="black" d="M402.61,-177.49C410.71,-167.25 421.5,-153.92 431.52,-142.5 437.05,-136.2 443.33,-129.48 448.94,-123.63"/>
<text text-anchor="middle" x="441.64" y="-145.7" font-family="Times,serif" font-size="14.00">290</text>
</g>
<!-- x107y065&#45;&#45;x131y065 -->
<g id="edge22" class="edge">
<title>x107y065&#45;&#45;x131y065</title>
<path fill="none" stroke="black" d="M379.27,-177.23C375.93,-171.55 372.37,-165.11 369.52,-159 364.29,-147.79 359.53,-134.69 356.12,-124.5"/>
<text text-anchor="middle" x="379.64" y="-145.7" font-family="Times,serif" font-size="14.00">140</text>
</g>
<!-- x001y000 -->
<g id="node12" class="node">
<title>x001y000</title>
<ellipse fill="none" stroke="black" cx="489.77" cy="-991.5" rx="47.77" ry="18"/>
<text text-anchor="middle" x="489.77" y="-986.45" font-family="Times,serif" font-size="14.00">x001y000</text>
</g>
<!-- x001y000&#45;&#45;x007y009 -->
<g id="edge7" class="edge">
<title>x001y000&#45;&#45;x007y009</title>
<path fill="none" stroke="black" d="M489.77,-973.41C489.77,-958.34 489.77,-936.49 489.77,-921.35"/>
<text text-anchor="middle" x="496.52" y="-942.2" font-family="Times,serif" font-size="14.00">47</text>
</g>
<!-- x077y135 -->
<g id="node13" class="node">
<title>x077y135</title>
<ellipse fill="none" stroke="black" cx="47.77" cy="-372" rx="47.77" ry="18"/>
<text text-anchor="middle" x="47.77" y="-366.95" font-family="Times,serif" font-size="14.00">x077y135</text>
</g>
<!-- x077y135&#45;&#45;x079y109 -->
<g id="edge8" class="edge">
<title>x077y135&#45;&#45;x079y109</title>
<path fill="none" stroke="black" d="M68.41,-355.34C89.07,-339.66 120.67,-315.68 141.28,-300.05"/>
<text text-anchor="middle" x="125.1" y="-322.7" font-family="Times,serif" font-size="14.00">212</text>
</g>
<!-- x107y135 -->
<g id="node29" class="node">
<title>x107y135</title>
<ellipse fill="none" stroke="black" cx="47.77" cy="-283.5" rx="47.77" ry="18"/>
<text text-anchor="middle" x="47.77" y="-278.45" font-family="Times,serif" font-size="14.00">x107y135</text>
</g>
<!-- x077y135&#45;&#45;x107y135 -->
<g id="edge25" class="edge">
<title>x077y135&#45;&#45;x107y135</title>
<path fill="none" stroke="black" d="M47.77,-353.91C47.77,-338.84 47.77,-316.99 47.77,-301.85"/>
<text text-anchor="middle" x="57.89" y="-322.7" font-family="Times,serif" font-size="14.00">170</text>
</g>
<!-- x079y109&#45;&#45;x109y099 -->
<g id="edge44" class="edge">
<title>x079y109&#45;&#45;x109y099</title>
<path fill="none" stroke="black" d="M161.77,-265.41C161.77,-250.34 161.77,-228.49 161.77,-213.35"/>
<text text-anchor="middle" x="171.89" y="-234.2" font-family="Times,serif" font-size="14.00">184</text>
</g>
<!-- x135y029 -->
<g id="node21" class="node">
<title>x135y029</title>
<ellipse fill="none" stroke="black" cx="464.77" cy="-18" rx="47.77" ry="18"/>
<text text-anchor="middle" x="464.77" y="-12.95" font-family="Times,serif" font-size="14.00">x135y029</text>
</g>
<!-- x113y029&#45;&#45;x135y029 -->
<g id="edge34" class="edge">
<title>x113y029&#45;&#45;x135y029</title>
<path fill="none" stroke="black" d="M464.77,-88.41C464.77,-73.34 464.77,-51.49 464.77,-36.35"/>
<text text-anchor="middle" x="471.52" y="-57.2" font-family="Times,serif" font-size="14.00">54</text>
</g>
<!-- x083y037&#45;&#45;x089y061 -->
<g id="edge27" class="edge">
<title>x083y037&#45;&#45;x089y061</title>
<path fill="none" stroke="black" d="M436.59,-354.32C426.38,-339.1 411.37,-316.72 401.12,-301.42"/>
<text text-anchor="middle" x="434.09" y="-322.7" font-family="Times,serif" font-size="14.00">174</text>
</g>
<!-- x083y037&#45;&#45;x113y029 -->
<g id="edge10" class="edge">
<title>x083y037&#45;&#45;x113y029</title>
<path fill="none" stroke="black" d="M448.88,-353.71C451.96,-305.97 460.56,-172.67 463.65,-124.85"/>
<text text-anchor="middle" x="466.79" y="-234.2" font-family="Times,serif" font-size="14.00">170</text>
</g>
<!-- x059y127&#45;&#45;x077y135 -->
<g id="edge11" class="edge">
<title>x059y127&#45;&#45;x077y135</title>
<path fill="none" stroke="black" d="M82.27,-442.41C74.73,-427.25 63.78,-405.21 56.25,-390.05"/>
<text text-anchor="middle" x="83.25" y="-411.2" font-family="Times,serif" font-size="14.00">130</text>
</g>
<!-- x065y101 -->
<g id="node25" class="node">
<title>x065y101</title>
<ellipse fill="none" stroke="black" cx="161.77" cy="-372" rx="47.77" ry="18"/>
<text text-anchor="middle" x="161.77" y="-366.95" font-family="Times,serif" font-size="14.00">x065y101</text>
</g>
<!-- x059y127&#45;&#45;x065y101 -->
<g id="edge18" class="edge">
<title>x059y127&#45;&#45;x065y101</title>
<path fill="none" stroke="black" d="M104.24,-442.75C112.39,-432.65 123.01,-419.55 132.52,-408 137.45,-402.01 142.89,-395.47 147.73,-389.69"/>
<text text-anchor="middle" x="142.64" y="-411.2" font-family="Times,serif" font-size="14.00">116</text>
</g>
<!-- x059y053 -->
<g id="node18" class="node">
<title>x059y053</title>
<ellipse fill="none" stroke="black" cx="318.77" cy="-549" rx="47.77" ry="18"/>
<text text-anchor="middle" x="318.77" y="-543.95" font-family="Times,serif" font-size="14.00">x059y053</text>
</g>
<!-- x059y053&#45;&#45;x061y039 -->
<g id="edge49" class="edge">
<title>x059y053&#45;&#45;x061y039</title>
<path fill="none" stroke="black" d="M341.65,-532.89C350.55,-526.87 360.75,-519.76 369.77,-513 385.03,-501.56 401.71,-487.86 414.08,-477.47"/>
<text text-anchor="middle" x="397.7" y="-499.7" font-family="Times,serif" font-size="14.00">80</text>
</g>
<!-- x059y053&#45;&#45;x089y061 -->
<g id="edge12" class="edge">
<title>x059y053&#45;&#45;x089y061</title>
<path fill="none" stroke="black" d="M323.43,-530.71C336.29,-482.97 372.21,-349.67 385.09,-301.85"/>
<text text-anchor="middle" x="366.03" y="-411.2" font-family="Times,serif" font-size="14.00">154</text>
</g>
<!-- x061y081 -->
<g id="node28" class="node">
<title>x061y081</title>
<ellipse fill="none" stroke="black" cx="265.77" cy="-460.5" rx="47.77" ry="18"/>
<text text-anchor="middle" x="265.77" y="-455.45" font-family="Times,serif" font-size="14.00">x061y081</text>
</g>
<!-- x059y053&#45;&#45;x061y081 -->
<g id="edge24" class="edge">
<title>x059y053&#45;&#45;x061y081</title>
<path fill="none" stroke="black" d="M308.55,-531.32C299.22,-516.1 285.51,-493.72 276.14,-478.42"/>
<text text-anchor="middle" x="307.14" y="-499.7" font-family="Times,serif" font-size="14.00">142</text>
</g>
<!-- x111y015 -->
<g id="node19" class="node">
<title>x111y015</title>
<ellipse fill="none" stroke="black" cx="546.77" cy="-195" rx="47.77" ry="18"/>
<text text-anchor="middle" x="546.77" y="-189.95" font-family="Times,serif" font-size="14.00">x111y015</text>
</g>
<!-- x111y015&#45;&#45;x113y029 -->
<g id="edge14" class="edge">
<title>x111y015&#45;&#45;x113y029</title>
<path fill="none" stroke="black" d="M531.35,-177.73C516.78,-162.36 495.04,-139.43 480.4,-123.99"/>
<text text-anchor="middle" x="519.86" y="-145.7" font-family="Times,serif" font-size="14.00">32</text>
</g>
<!-- x111y015&#45;&#45;x135y029 -->
<g id="edge38" class="edge">
<title>x111y015&#45;&#45;x135y029</title>
<path fill="none" stroke="black" d="M545.1,-176.75C542.48,-155.16 536.14,-117.51 521.77,-88.5 511.66,-68.08 494.54,-48.35 481.7,-35.16"/>
<text text-anchor="middle" x="545.04" y="-101.45" font-family="Times,serif" font-size="14.00">354</text>
</g>
<!-- x131y065&#45;&#45;x135y029 -->
<g id="edge15" class="edge">
<title>x131y065&#45;&#45;x135y029</title>
<path fill="none" stroke="black" d="M371.41,-89.84C392.07,-74.16 423.67,-50.18 444.28,-34.55"/>
<text text-anchor="middle" x="428.1" y="-57.2" font-family="Times,serif" font-size="14.00">296</text>
</g>
<!-- x057y011&#45;&#45;x061y039 -->
<g id="edge47" class="edge">
<title>x057y011&#45;&#45;x061y039</title>
<path fill="none" stroke="black" d="M526.12,-532.34C505.46,-516.66 473.87,-492.68 453.26,-477.05"/>
<text text-anchor="middle" x="510.1" y="-499.7" font-family="Times,serif" font-size="14.00">148</text>
</g>
<!-- x083y017 -->
<g id="node32" class="node">
<title>x083y017</title>
<ellipse fill="none" stroke="black" cx="546.77" cy="-460.5" rx="47.77" ry="18"/>
<text text-anchor="middle" x="546.77" y="-455.45" font-family="Times,serif" font-size="14.00">x083y017</text>
</g>
<!-- x057y011&#45;&#45;x083y017 -->
<g id="edge30" class="edge">
<title>x057y011&#45;&#45;x083y017</title>
<path fill="none" stroke="black" d="M546.77,-530.91C546.77,-515.84 546.77,-493.99 546.77,-478.85"/>
<text text-anchor="middle" x="556.89" y="-499.7" font-family="Times,serif" font-size="14.00">212</text>
</g>
<!-- x007y035&#45;&#45;x043y039 -->
<g id="edge20" class="edge">
<title>x007y035&#45;&#45;x043y039</title>
<path fill="none" stroke="black" d="M432.77,-796.21C432.77,-748.47 432.77,-615.17 432.77,-567.35"/>
<text text-anchor="middle" x="442.89" y="-676.7" font-family="Times,serif" font-size="14.00">168</text>
</g>
<!-- x013y065 -->
<g id="node24" class="node">
<title>x013y065</title>
<ellipse fill="none" stroke="black" cx="356.77" cy="-726" rx="47.77" ry="18"/>
<text text-anchor="middle" x="356.77" y="-720.95" font-family="Times,serif" font-size="14.00">x013y065</text>
</g>
<!-- x007y035&#45;&#45;x013y065 -->
<g id="edge17" class="edge">
<title>x007y035&#45;&#45;x013y065</title>
<path fill="none" stroke="black" d="M416.42,-797.42C410.64,-791.58 404.17,-784.85 398.52,-778.5 388.41,-767.16 377.63,-753.82 369.55,-743.56"/>
<text text-anchor="middle" x="408.64" y="-765.2" font-family="Times,serif" font-size="14.00">240</text>
</g>
<!-- x031y067 -->
<g id="node34" class="node">
<title>x031y067</title>
<ellipse fill="none" stroke="black" cx="342.77" cy="-637.5" rx="47.77" ry="18"/>
<text text-anchor="middle" x="342.77" y="-632.45" font-family="Times,serif" font-size="14.00">x031y067</text>
</g>
<!-- x013y065&#45;&#45;x031y067 -->
<g id="edge32" class="edge">
<title>x013y065&#45;&#45;x031y067</title>
<path fill="none" stroke="black" d="M354,-707.91C351.56,-692.84 348.03,-670.99 345.58,-655.85"/>
<text text-anchor="middle" x="357.77" y="-676.7" font-family="Times,serif" font-size="14.00">76</text>
</g>
<!-- x065y101&#45;&#45;x079y109 -->
<g id="edge19" class="edge">
<title>x065y101&#45;&#45;x079y109</title>
<path fill="none" stroke="black" d="M161.77,-353.91C161.77,-338.84 161.77,-316.99 161.77,-301.85"/>
<text text-anchor="middle" x="168.52" y="-322.7" font-family="Times,serif" font-size="14.00">46</text>
</g>
<!-- x009y077&#45;&#45;x013y065 -->
<g id="edge36" class="edge">
<title>x009y077&#45;&#45;x013y065</title>
<path fill="none" stroke="black" d="M263.41,-797.84C284.07,-782.16 315.67,-758.18 336.28,-742.55"/>
<text text-anchor="middle" x="316.73" y="-765.2" font-family="Times,serif" font-size="14.00">84</text>
</g>
<!-- x029y089 -->
<g id="node27" class="node">
<title>x029y089</title>
<ellipse fill="none" stroke="black" cx="242.77" cy="-726" rx="47.77" ry="18"/>
<text text-anchor="middle" x="242.77" y="-720.95" font-family="Times,serif" font-size="14.00">x029y089</text>
</g>
<!-- x009y077&#45;&#45;x029y089 -->
<g id="edge21" class="edge">
<title>x009y077&#45;&#45;x029y089</title>
<path fill="none" stroke="black" d="M242.77,-796.41C242.77,-781.34 242.77,-759.49 242.77,-744.35"/>
<text text-anchor="middle" x="252.89" y="-765.2" font-family="Times,serif" font-size="14.00">112</text>
</g>
<!-- x029y089&#45;&#45;x061y081 -->
<g id="edge46" class="edge">
<title>x029y089&#45;&#45;x061y081</title>
<path fill="none" stroke="black" d="M244.28,-707.71C248.45,-659.97 260.08,-526.67 264.25,-478.85"/>
<text text-anchor="middle" x="264.92" y="-588.2" font-family="Times,serif" font-size="14.00">232</text>
</g>
<!-- x029y089&#45;&#45;x031y067 -->
<g id="edge45" class="edge">
<title>x029y089&#45;&#45;x031y067</title>
<path fill="none" stroke="black" d="M261.11,-709.13C279.04,-693.62 306.2,-670.13 324.2,-654.56"/>
<text text-anchor="middle" x="308.48" y="-676.7" font-family="Times,serif" font-size="14.00">68</text>
</g>
<!-- x029y089&#45;&#45;x029y105 -->
<g id="edge35" class="edge">
<title>x029y089&#45;&#45;x029y105</title>
<path fill="none" stroke="black" d="M228.47,-708.73C214.97,-693.36 194.82,-670.43 181.26,-654.99"/>
<text text-anchor="middle" x="218.33" y="-676.7" font-family="Times,serif" font-size="14.00">76</text>
</g>
<!-- x061y081&#45;&#45;x075y083 -->
<g id="edge53" class="edge">
<title>x061y081&#45;&#45;x075y083</title>
<path fill="none" stroke="black" d="M267.74,-442.41C269.49,-427.34 272.01,-405.49 273.76,-390.35"/>
<text text-anchor="middle" x="278.41" y="-411.2" font-family="Times,serif" font-size="14.00">52</text>
</g>
<!-- x061y081&#45;&#45;x065y101 -->
<g id="edge39" class="edge">
<title>x061y081&#45;&#45;x065y101</title>
<path fill="none" stroke="black" d="M246.69,-443.63C227.93,-428.03 199.45,-404.34 180.72,-388.76"/>
<text text-anchor="middle" x="229.83" y="-411.2" font-family="Times,serif" font-size="14.00">84</text>
</g>
<!-- x125y137 -->
<g id="node30" class="node">
<title>x125y137</title>
<ellipse fill="none" stroke="black" cx="47.77" cy="-195" rx="47.77" ry="18"/>
<text text-anchor="middle" x="47.77" y="-189.95" font-family="Times,serif" font-size="14.00">x125y137</text>
</g>
<!-- x107y135&#45;&#45;x125y137 -->
<g id="edge26" class="edge">
<title>x107y135&#45;&#45;x125y137</title>
<path fill="none" stroke="black" d="M47.77,-265.41C47.77,-250.34 47.77,-228.49 47.77,-213.35"/>
<text text-anchor="middle" x="54.52" y="-234.2" font-family="Times,serif" font-size="14.00">48</text>
</g>
<!-- x107y135&#45;&#45;x109y099 -->
<g id="edge59" class="edge">
<title>x107y135&#45;&#45;x109y099</title>
<path fill="none" stroke="black" d="M68.41,-266.84C89.07,-251.16 120.67,-227.18 141.28,-211.55"/>
<text text-anchor="middle" x="125.1" y="-234.2" font-family="Times,serif" font-size="14.00">290</text>
</g>
<!-- x139y140 -->
<g id="node31" class="node">
<title>x139y140</title>
<ellipse fill="none" stroke="black" cx="47.77" cy="-106.5" rx="47.77" ry="18"/>
<text text-anchor="middle" x="47.77" y="-101.45" font-family="Times,serif" font-size="14.00">x139y140</text>
</g>
<!-- x125y137&#45;&#45;x139y140 -->
<g id="edge29" class="edge">
<title>x125y137&#45;&#45;x139y140</title>
<path fill="none" stroke="black" d="M47.77,-176.91C47.77,-161.84 47.77,-139.99 47.77,-124.85"/>
<text text-anchor="middle" x="54.52" y="-145.7" font-family="Times,serif" font-size="14.00">57</text>
</g>
<!-- x125y137&#45;&#45;x135y101 -->
<g id="edge31" class="edge">
<title>x125y137&#45;&#45;x135y101</title>
<path fill="none" stroke="black" d="M68.41,-178.34C89.07,-162.66 120.67,-138.68 141.28,-123.05"/>
<text text-anchor="middle" x="125.1" y="-145.7" font-family="Times,serif" font-size="14.00">314</text>
</g>
<!-- x083y017&#45;&#45;x083y037 -->
<g id="edge52" class="edge">
<title>x083y017&#45;&#45;x083y037</title>
<path fill="none" stroke="black" d="M528.61,-443.63C510.86,-428.12 483.97,-404.63 466.15,-389.06"/>
<text text-anchor="middle" x="512.89" y="-411.2" font-family="Times,serif" font-size="14.00">96</text>
</g>
<!-- x083y017&#45;&#45;x111y015 -->
<g id="edge58" class="edge">
<title>x083y017&#45;&#45;x111y015</title>
<path fill="none" stroke="black" d="M546.77,-442.21C546.77,-394.47 546.77,-261.17 546.77,-213.35"/>
<text text-anchor="middle" x="556.89" y="-322.7" font-family="Times,serif" font-size="14.00">282</text>
</g>
<!-- x031y067&#45;&#45;x043y039 -->
<g id="edge54" class="edge">
<title>x031y067&#45;&#45;x043y039</title>
<path fill="none" stroke="black" d="M359.7,-620.23C375.79,-604.77 399.85,-581.64 415.92,-566.2"/>
<text text-anchor="middle" x="405.95" y="-588.2" font-family="Times,serif" font-size="14.00">220</text>
</g>
<!-- x031y067&#45;&#45;x059y053 -->
<g id="edge40" class="edge">
<title>x031y067&#45;&#45;x059y053</title>
<path fill="none" stroke="black" d="M338.03,-619.41C333.85,-604.34 327.78,-582.49 323.58,-567.35"/>
<text text-anchor="middle" x="343.04" y="-588.2" font-family="Times,serif" font-size="14.00">202</text>
</g>
<!-- x029y105&#45;&#45;x033y133 -->
<g id="edge43" class="edge">
<title>x029y105&#45;&#45;x033y133</title>
<path fill="none" stroke="black" d="M150.42,-620.42C144.64,-614.58 138.17,-607.85 132.52,-601.5 122.41,-590.16 111.63,-576.82 103.55,-566.56"/>
<text text-anchor="middle" x="142.64" y="-588.2" font-family="Times,serif" font-size="14.00">220</text>
</g>
<!-- x029y105&#45;&#45;x065y101 -->
<g id="edge60" class="edge">
<title>x029y105&#45;&#45;x065y101</title>
<path fill="none" stroke="black" d="M166.44,-619.21C165.53,-571.47 163.01,-438.17 162.1,-390.35"/>
<text text-anchor="middle" x="174.51" y="-499.7" font-family="Times,serif" font-size="14.00">228</text>
</g>
<!-- x109y099&#45;&#45;x135y101 -->
<g id="edge51" class="edge">
<title>x109y099&#45;&#45;x135y101</title>
<path fill="none" stroke="black" d="M161.77,-176.91C161.77,-161.84 161.77,-139.99 161.77,-124.85"/>
<text text-anchor="middle" x="171.89" y="-145.7" font-family="Times,serif" font-size="14.00">104</text>
</g>
</g>
</svg>
